<mxfile host="www.draw.io" modified="2020-01-10T06:23:00.923Z" agent="Mozilla/5.0 (X11; Linux x86_64) AppleWebKit/537.36 (KHTML, like Gecko) Chrome/78.0.3904.108 Safari/537.36" etag="I2eZK8EGK34z-7fwBnHl" version="12.5.1" type="github">
  <diagram id="Ji8443rtklOH98S1Sard" name="Page-1">
    <mxGraphModel dx="980" dy="553" grid="1" gridSize="10" guides="1" tooltips="1" connect="1" arrows="1" fold="1" page="1" pageScale="1" pageWidth="850" pageHeight="1100" math="0" shadow="0">
      <root>
        <mxCell id="0"/>
        <mxCell id="1" parent="0"/>
        <mxCell id="-Hsxoi9xOVJZkIzL8CnW-8" value="&lt;table border=&quot;1&quot; width=&quot;100%&quot; cellpadding=&quot;4&quot; style=&quot;width: 100% ; height: 100% ; border-collapse: collapse&quot;&gt;&lt;tbody&gt;&lt;tr&gt;&lt;th align=&quot;center&quot;&gt;book_category&lt;/th&gt;&lt;/tr&gt;&lt;tr&gt;&lt;td align=&quot;center&quot;&gt;&lt;b&gt;category_num&lt;br&gt;-varchar（255）&lt;br&gt;-种类编号&lt;/b&gt;&lt;br&gt;&lt;br&gt;category_name&lt;br&gt;-varchar（255）&lt;br&gt;-种类名&lt;br&gt;&lt;br&gt;book_n&lt;br&gt;-int&lt;br&gt;-书本量&lt;br&gt;&lt;br&gt;&lt;/td&gt;&lt;/tr&gt;&lt;/tbody&gt;&lt;/table&gt;" style="text;html=1;strokeColor=none;fillColor=none;overflow=fill;" parent="1" vertex="1">
          <mxGeometry x="660" y="550" width="160" height="210" as="geometry"/>
        </mxCell>
        <mxCell id="-Hsxoi9xOVJZkIzL8CnW-9" value="&lt;table border=&quot;1&quot; width=&quot;100%&quot; cellpadding=&quot;4&quot; style=&quot;width: 100% ; height: 100% ; border-collapse: collapse&quot;&gt;&lt;tbody&gt;&lt;tr&gt;&lt;th align=&quot;center&quot;&gt;book_book_category&lt;/th&gt;&lt;/tr&gt;&lt;tr&gt;&lt;td align=&quot;center&quot;&gt;&lt;b&gt;category_num&lt;br&gt;-varchar（255）&lt;br&gt;-种类编号&lt;br&gt;&lt;/b&gt;&lt;br&gt;book_num&lt;br&gt;-varchar（255）&lt;br&gt;-书本编号&lt;br&gt;&lt;/td&gt;&lt;/tr&gt;&lt;/tbody&gt;&lt;/table&gt;" style="text;html=1;strokeColor=none;fillColor=none;overflow=fill;" parent="1" vertex="1">
          <mxGeometry x="660" y="780" width="160" height="140" as="geometry"/>
        </mxCell>
        <mxCell id="-Hsxoi9xOVJZkIzL8CnW-10" value="&lt;table border=&quot;1&quot; width=&quot;100%&quot; cellpadding=&quot;4&quot; style=&quot;width: 100% ; height: 100% ; border-collapse: collapse&quot;&gt;&lt;tbody&gt;&lt;tr&gt;&lt;th align=&quot;center&quot;&gt;&lt;b&gt;book&lt;/b&gt;&lt;/th&gt;&lt;/tr&gt;&lt;tr&gt;&lt;td align=&quot;center&quot;&gt;&lt;b&gt;book_num&lt;br&gt;-varchar（255）&lt;br&gt;-书本编号&lt;/b&gt;&lt;br&gt;&lt;br&gt;book_name&lt;br&gt;-varchar（255）&lt;br&gt;-书本名字&lt;br&gt;&lt;br&gt;is_borrow&lt;br&gt;--varchar（255）&lt;br&gt;-是否借阅&lt;br&gt;&lt;br&gt;book_img&lt;br&gt;-varchar（255）&lt;br&gt;书本图片&lt;br&gt;&lt;br&gt;writer&lt;br&gt;-varchar（255）&lt;br&gt;-作者&lt;br&gt;&lt;br&gt;publish_date&lt;br&gt;-varchar（255）&lt;br&gt;-登记时间&lt;br&gt;&lt;br&gt;udate_time&lt;br&gt;-varchar（255）&lt;br&gt;--更新时间&lt;br&gt;&lt;br&gt;position&lt;br&gt;-varchar（255）&lt;br&gt;-存放位置&lt;br&gt;&lt;br&gt;publish&lt;br&gt;-varchar（255）&lt;br&gt;-出版社信息&lt;/td&gt;&lt;/tr&gt;&lt;/tbody&gt;&lt;/table&gt;" style="text;html=1;strokeColor=none;fillColor=none;overflow=fill;" parent="1" vertex="1">
          <mxGeometry x="660" width="160" height="530" as="geometry"/>
        </mxCell>
        <mxCell id="-Hsxoi9xOVJZkIzL8CnW-11" value="&lt;table border=&quot;1&quot; width=&quot;100%&quot; cellpadding=&quot;4&quot; style=&quot;width: 100% ; height: 100% ; border-collapse: collapse&quot;&gt;&lt;tbody&gt;&lt;tr&gt;&lt;th align=&quot;center&quot;&gt;reader_category&lt;/th&gt;&lt;/tr&gt;&lt;tr&gt;&lt;td align=&quot;center&quot;&gt;&lt;b&gt;&lt;br&gt;category_num&lt;br&gt;-varchar（255）&lt;br&gt;-种类编号&lt;/b&gt;&lt;br&gt;&lt;br&gt;reader_num&lt;br&gt;-varchar（255）&lt;br&gt;-读者编号&lt;br&gt;&lt;/td&gt;&lt;/tr&gt;&lt;/tbody&gt;&lt;/table&gt;" style="text;html=1;strokeColor=none;fillColor=none;overflow=fill;" parent="1" vertex="1">
          <mxGeometry x="60" y="550" width="160" height="150" as="geometry"/>
        </mxCell>
        <mxCell id="-Hsxoi9xOVJZkIzL8CnW-12" value="&lt;table border=&quot;1&quot; width=&quot;100%&quot; cellpadding=&quot;4&quot; style=&quot;width: 100% ; height: 100% ; border-collapse: collapse&quot;&gt;&lt;tbody&gt;&lt;tr&gt;&lt;th align=&quot;center&quot;&gt;reader_reader_category&lt;/th&gt;&lt;/tr&gt;&lt;tr&gt;&lt;td align=&quot;center&quot;&gt;&lt;b&gt;category_num&lt;br&gt;-varchar（255）&lt;br&gt;-种类编号&lt;/b&gt;&lt;br&gt;&lt;br&gt;category_name&lt;br&gt;-varchar（255）&lt;br&gt;-种类名&lt;br&gt;&lt;/td&gt;&lt;/tr&gt;&lt;/tbody&gt;&lt;/table&gt;" style="text;html=1;strokeColor=none;fillColor=none;overflow=fill;" parent="1" vertex="1">
          <mxGeometry x="60" y="710" width="160" height="140" as="geometry"/>
        </mxCell>
        <mxCell id="-Hsxoi9xOVJZkIzL8CnW-13" value="&lt;table border=&quot;1&quot; width=&quot;100%&quot; cellpadding=&quot;4&quot; style=&quot;width: 100% ; height: 100% ; border-collapse: collapse&quot;&gt;&lt;tbody&gt;&lt;tr&gt;&lt;th align=&quot;center&quot;&gt;&lt;b&gt;reader&lt;/b&gt;&lt;/th&gt;&lt;/tr&gt;&lt;tr&gt;&lt;td align=&quot;center&quot;&gt;&lt;b&gt;reader_num&lt;br&gt;-varchar（255）&lt;br&gt;-读者编号&lt;br&gt;&lt;br&gt;&lt;/b&gt;reader_pwd&lt;br&gt;-varchar（255）&lt;br&gt;-读者密码&lt;br&gt;&lt;br&gt;reader_name&lt;br&gt;-varchar（255）&lt;br&gt;-读者姓名&lt;br&gt;&lt;br&gt;gender&lt;br&gt;-varchar（255）&lt;br&gt;-读者性别&lt;br&gt;&lt;br&gt;email&lt;br&gt;-varchar（255）&lt;br&gt;-电子邮箱&lt;br&gt;&lt;br&gt;phone&lt;br&gt;-varchar（255）&lt;br&gt;-手机号&lt;br&gt;&lt;br&gt;note&lt;br&gt;-varchar（255）&lt;br&gt;-笔记&lt;br&gt;&lt;/td&gt;&lt;/tr&gt;&lt;/tbody&gt;&lt;/table&gt;" style="text;html=1;strokeColor=none;fillColor=none;overflow=fill;" parent="1" vertex="1">
          <mxGeometry x="60" width="160" height="430" as="geometry"/>
        </mxCell>
        <mxCell id="-Hsxoi9xOVJZkIzL8CnW-14" value="&lt;table border=&quot;1&quot; width=&quot;100%&quot; cellpadding=&quot;4&quot; style=&quot;width: 100% ; height: 100% ; border-collapse: collapse&quot;&gt;&lt;tbody&gt;&lt;tr&gt;&lt;th align=&quot;center&quot;&gt;&lt;b&gt;borrow&lt;/b&gt;&lt;/th&gt;&lt;/tr&gt;&lt;tr&gt;&lt;td align=&quot;center&quot;&gt;reader_num&lt;br&gt;-varchar（255）&lt;br&gt;-读者编号&lt;br&gt;&lt;br&gt;book_num&lt;br&gt;-varchar（255）&lt;br&gt;-书本编号&lt;br&gt;&lt;br&gt;borrow_data&lt;br&gt;-datetime&lt;br&gt;-借阅时间&lt;br&gt;&lt;br&gt;return_data&lt;br&gt;-datetime&lt;br&gt;-归还时间&lt;/td&gt;&lt;/tr&gt;&lt;/tbody&gt;&lt;/table&gt;" style="text;html=1;strokeColor=none;fillColor=none;overflow=fill;" parent="1" vertex="1">
          <mxGeometry x="270" width="160" height="250" as="geometry"/>
        </mxCell>
        <mxCell id="-Hsxoi9xOVJZkIzL8CnW-15" value="&lt;table border=&quot;1&quot; width=&quot;100%&quot; cellpadding=&quot;4&quot; style=&quot;width: 100% ; height: 100% ; border-collapse: collapse&quot;&gt;&lt;tbody&gt;&lt;tr&gt;&lt;th align=&quot;center&quot;&gt;&lt;b&gt;library&lt;/b&gt;&lt;/th&gt;&lt;/tr&gt;&lt;tr&gt;&lt;td align=&quot;center&quot;&gt;book&lt;br&gt;-图书表&lt;br&gt;&lt;br&gt;book_category&lt;br&gt;-书本种类表&lt;br&gt;&lt;br&gt;book_book_category&lt;br&gt;-图书书本种类表&lt;br&gt;&lt;br&gt;reader&lt;br&gt;-读者表&lt;br&gt;&lt;br&gt;reader_category&lt;br&gt;-读者种类表&lt;br&gt;&lt;br&gt;reader_reader_category&lt;br&gt;-读者读者种类表&lt;br&gt;&lt;br&gt;administrator&lt;br&gt;-管理员表&lt;br&gt;&lt;br&gt;borrow&lt;br&gt;-借阅表&lt;br&gt;&lt;br&gt;out_time&lt;br&gt;-超时表&lt;/td&gt;&lt;/tr&gt;&lt;/tbody&gt;&lt;/table&gt;" style="text;html=1;strokeColor=none;fillColor=none;overflow=fill;" parent="1" vertex="1">
          <mxGeometry x="360" y="270" width="160" height="410" as="geometry"/>
        </mxCell>
        <mxCell id="-Hsxoi9xOVJZkIzL8CnW-16" value="&lt;table border=&quot;1&quot; width=&quot;100%&quot; cellpadding=&quot;4&quot; style=&quot;width: 100% ; height: 100% ; border-collapse: collapse&quot;&gt;&lt;tbody&gt;&lt;tr&gt;&lt;th align=&quot;center&quot;&gt;&lt;b&gt;return_out_time&lt;/b&gt;&lt;/th&gt;&lt;/tr&gt;&lt;tr&gt;&lt;td align=&quot;center&quot;&gt;reader_num&lt;br&gt;-varchar（255）&lt;br&gt;读者编号&lt;br&gt;&lt;br&gt;book_num&lt;br&gt;-varchar（255）&lt;br&gt;-书本编号&lt;br&gt;&lt;br&gt;out_time&lt;br&gt;-varchar（255）&lt;br&gt;超时时长&lt;br&gt;&lt;br&gt;write_data&lt;br&gt;-varchar（255）&lt;br&gt;记录时间&lt;/td&gt;&lt;/tr&gt;&lt;/tbody&gt;&lt;/table&gt;" style="text;html=1;strokeColor=none;fillColor=none;overflow=fill;" parent="1" vertex="1">
          <mxGeometry x="450" width="160" height="250" as="geometry"/>
        </mxCell>
        <mxCell id="-Hsxoi9xOVJZkIzL8CnW-17" value="&lt;table border=&quot;1&quot; width=&quot;100%&quot; cellpadding=&quot;4&quot; style=&quot;width: 100% ; height: 100% ; border-collapse: collapse&quot;&gt;&lt;tbody&gt;&lt;tr&gt;&lt;th align=&quot;center&quot;&gt;administrator&lt;/th&gt;&lt;/tr&gt;&lt;tr&gt;&lt;td align=&quot;center&quot;&gt;admin_id &lt;br&gt;- varchar（255）&lt;br&gt;-管理员账号&lt;br&gt;&lt;br&gt;admin_liccensecode&lt;br&gt;-varchar（255）&lt;br&gt;-管理员密码&lt;/td&gt;&lt;/tr&gt;&lt;/tbody&gt;&lt;/table&gt;" style="text;html=1;strokeColor=none;fillColor=none;overflow=fill;" parent="1" vertex="1">
          <mxGeometry x="360" y="710" width="160" height="150" as="geometry"/>
        </mxCell>
      </root>
    </mxGraphModel>
  </diagram>
</mxfile>
